<svg xmlns="http://www.w3.org/2000/svg" xmlns:xlink="http://www.w3.org/1999/xlink" version="1.1" x="0px" y="0px" viewBox="0 0 100 125" enable-background="new 0 0 100 100" xml:space="preserve"><path d="M45.004,18.081l-4.557-2.504h4.846c-0.225,0.549-0.351,1.148-0.351,1.777C44.942,17.602,44.967,17.843,45.004,18.081z   M54.298,18.073l4.552-2.496h-4.842c0.225,0.549,0.351,1.148,0.351,1.777C54.359,17.599,54.334,17.838,54.298,18.073z M49.65,20.34  c1.646,0,2.985-1.34,2.985-2.986s-1.339-2.985-2.985-2.985c-1.646,0-2.985,1.339-2.985,2.985S48.004,20.34,49.65,20.34z   M94.292,94.005c-0.289,0.349-0.718,0.551-1.172,0.551H6.88c-0.468,0-0.911-0.216-1.199-0.585c-0.288-0.37-0.39-0.852-0.276-1.306  c1.249-4.981,4.35-16.757,6.167-18.526c0.783-0.763,9.348-4.2,25.458-10.219c-2.771-3.652-4.55-8.036-5.434-11.441  c-1.354-1.26-2.358-3.632-2.364-5.726c-0.004-1.503,0.486-2.821,1.402-3.811c-0.747-1.909-2.432-6.424-1.257-12.118  c-2.842-0.781-8.426-2.988-8.426-8.262c0-3.624,7.221-17.115,28.877-17.115c21.34,0,28.878,13.632,28.878,17.115  c0,5.247-5.626,7.459-8.535,8.251c0.917,4.239-0.359,9.37-0.943,11.724c-0.015,0.056-0.028,0.111-0.041,0.162  c0.906,1.094,1.365,2.575,1.303,4.266c-0.076,2.107-0.945,4.281-2.133,5.459c-0.822,3.176-2.308,7.618-5.339,11.365  c7.957,2.679,23.588,8.596,25.458,10.238c1.957,1.72,4.952,12.47,6.14,18.724C94.699,93.195,94.581,93.655,94.292,94.005z   M37.004,15.653c0,0,11.42,6.41,12.646,6.41c1.249,0,12.645-6.41,12.645-6.41c0.138-0.075,0.583-0.247,0.583-0.938  c0-0.476-0.385-0.862-0.862-0.862h-9.228c-0.834-0.749-1.932-1.208-3.139-1.208c-1.207,0-2.305,0.46-3.139,1.208h-8.958  c-0.334,0-0.835,0.271-0.89,0.629C36.567,15.106,36.587,15.423,37.004,15.653z M30.251,31c0.893,2.102,6.495,6.342,19.357,6.342  c10.102,0,19.537-5.493,19.762-5.999c-0.088-0.379-0.414-1.386-0.426-1.538c-2.983-0.343-12.139-1.041-19.342-1.041  c-6.638,0-15.892,0.68-19.065,1.027C30.53,29.9,30.319,30.707,30.251,31z M50,67.972c7.838,0,14.187-10.882,15.509-16.716  c0.082-0.365,0.296-0.686,0.601-0.903c0.447-0.318,1.339-1.759,1.339-3.499c0-2.352-1.933-2.49-2.088-2.708  c-0.076-0.106-2.064-3.285-3.122-6.851c-3.208,1.174-7.425,1.771-12.632,1.771c-5.723,0-9.731-0.814-12.55-1.955  c-0.966,2.884-2.677,6.849-2.757,7.035c-0.126,0.29-2.027,0.49-2.027,2.597c0,1.549,0.927,3.206,1.535,3.623  c0.31,0.212,0.523,0.535,0.619,0.898C35.955,57.045,41.385,67.972,50,67.972z M42.539,92.983l-3.553-26.549  c-2.055,0.768-4.332,1.624-6.659,2.507l-1.611,12.52l4.875,11.522H42.539z M50,78.359c2.695,0,5.949-0.744,7.933-2.087l1.153-8.473  c-2.519,1.941-5.905,3.216-9.086,3.216c-3.048,0-6.606-1.219-9.063-3.103l1.13,7.978C44.175,77.615,47.205,78.359,50,78.359z   M69.451,81.199l-1.633-12.258c-2.19-0.754-4.587-1.903-6.782-2.639l-3.575,26.681h6.971L69.451,81.199z"/><text x="0" y="115" fill="#000000" font-size="5px" font-weight="bold" font-family="'Helvetica Neue', Helvetica, Arial-Unicode, Arial, Sans-serif">Created by H Alberto Gongora</text><text x="0" y="120" fill="#000000" font-size="5px" font-weight="bold" font-family="'Helvetica Neue', Helvetica, Arial-Unicode, Arial, Sans-serif">from the Noun Project</text></svg>