<svg xmlns="http://www.w3.org/2000/svg" viewBox="0 0 64 80" x="0px" y="0px"><path d="M40.46002,45.14996c4.65747-7.73077,.32587-20.67188-8.60028-20.6499-8.92578-.02142-13.25793,12.92133-8.59973,20.6499-3.21002,2.61005-5.22998,6.61005-5.22998,11.01001,0,1.84003,1.53998,3.34003,3.42999,3.34003h20.81c1.88,0,3.41998-1.5,3.41998-3.37,0-4.38-2.02002-8.38-5.22998-10.98004Zm-14.75-12.42999c-.01605-.62097,.59314-1.16479,1.19995-.95996,.32001,.08997,.66003,.13995,1.05005,.13995,1.76984,.01892,3.44702-1.22314,4-2.97998,.10999-.34998,.39996-.59998,.75-.65997,.34998-.05005,.69,.08997,.89996,.38995,.79144,1.14722,2.10291,1.87933,3.46002,1.87,.52002,0,.95001,.45001,.95001,1v4.14001c-.31671,8.68457-12.07159,8.54395-12.31-.00012,0,.00012,0-2.93988,0-2.93988Zm11.64539,12.76599c-1.19995,2.26593-3.14801,4.21613-5.4931,5.474-2.34589-1.25745-4.29358-3.20917-5.49396-5.4762,.83136-.44641,1.71924-.80219,2.66168-1.03375,1.53998,1.19995,4.12994,1.19995,5.65997,0,.94391,.23193,1.83295,.58856,2.66541,1.03595Zm4.91461,12.01404H21.46002c-.78003,0-1.42999-.62-1.42999-1.37,.00958-3.81915,1.77747-7.33899,4.65784-9.53894,1.55902,2.75281,4.04492,5.37762,7.17432,6.49304,3.13025-1.11633,5.61334-3.73816,7.17334-6.49048,2.87933,2.20135,4.64459,5.71783,4.65448,9.55634,0,.73004-.65002,1.35004-1.41998,1.35004Z"/><path d="M39,11.5c0-3.85938-3.14062-7-7-7-9.27356,.35248-9.27106,13.64893,.00006,14,3.85931,0,6.99994-3.14062,6.99994-7Zm-12,0c0-2.75684,2.24316-5,5-5,6.61749,.23499,6.61578,9.76599-.00006,10-2.75677,0-4.99994-2.24316-4.99994-5Z"/><path d="M31.85999,22.5c4.17004,0,7.87,2.48999,10.14001,6.31,0-4.85004-3.20001-8.98004-7.78998-10.04999-.9198-.17169-1.13068,.8006-2.21002,.73993-1.07928,.06073-1.29034-.91168-2.21002-.73999-4.42999,1.03003-7.57001,4.92004-7.76996,9.56006,2.28998-3.54004,5.84998-5.82001,9.83997-5.82001Z"/><path d="M12,32.5c-3.85938,0-7,3.14062-7,7,.35248,9.27356,13.64893,9.271,14-.00012,0-3.85925-3.14062-6.99988-7-6.99988Zm0,12c-2.75684,0-5-2.24316-5-5,.23499-6.61749,9.76599-6.61578,10,.00006,0,2.75677-2.24316,4.99994-5,4.99994Z"/><path d="M14.21002,46.76001c-.32001-.07001-.65002,.00995-.89001,.22998-.26001,.22998-.71002,.51001-1.32001,.51001s-1.06-.28003-1.32001-.51001c-.23999-.22003-.57001-.29999-.89001-.22998-4.58997,1.06995-7.78998,5.19995-7.78998,10.06995,0,1.47003,1.22998,2.67004,2.72998,2.67004h12.5c-2.39337-3.06274-.80731-7.888,.71002-10.98999-1.08002-.82001-2.34003-1.42004-3.72998-1.75Z"/><path d="M16,12.5c-3.85938,0-7,3.14062-7,7,.35248,9.27356,13.64893,9.271,14-.00012,0-3.85925-3.14062-6.99988-7-6.99988Zm0,12c-2.75684,0-5-2.24316-5-5,.23499-6.61749,9.76599-6.61578,10,.00006,0,2.75677-2.24316,4.99994-5,4.99994Z"/><path d="M21.90997,28.48999c-1.07996-.81-2.32996-1.41003-3.69995-1.72998-.32001-.07001-.65002,.00995-.89001,.22998-.26001,.22998-.71002,.51001-1.32001,.51001-1.07928,.06067-1.29034-.91174-2.21002-.74005-2.90997,.68005-5.26996,2.59003-6.59998,5.14001,3.94824-2.70935,10.04749-1.26172,12.40997,2.79004,.37-2.29999,1.18005-4.41003,2.31-6.20001Z"/><path d="M45,39.5c0,3.85938,3.14062,7,7,7,9.27356-.35248,9.27106-13.64893-.00006-14-3.85931,0-6.99994,3.14062-6.99994,7Zm12,0c0,2.75684-2.24316,5-5,5-6.61749-.23499-6.61578-9.76599,.00006-10,2.75677,0,4.99994,2.24316,4.99994,5Z"/><path d="M54.21002,46.76001c-.91986-.17175-1.13062,.8006-2.21002,.73993-.60999,.00006-1.06-.27997-1.32001-.50995-.23999-.22003-.57001-.29999-.89001-.22998-1.38995,.32996-2.64996,.92999-3.72998,1.75,1.5166,3.0993,3.10364,7.92859,.71002,10.98999h12.5c1.5,0,2.72998-1.20001,2.72998-2.67004,0-4.87-3.20001-9-7.78998-10.06995Z"/><path d="M48,12.5c-3.85938,0-7,3.14062-7,7,.35248,9.27356,13.64893,9.271,14-.00012,0-3.85925-3.14062-6.99988-7-6.99988Zm0,12c-2.75684,0-5-2.24316-5-5,.23499-6.61749,9.76599-6.61578,10,.00006,0,2.75677-2.24316,4.99994-5,4.99994Z"/><path d="M50.21002,26.76001c-.91986-.17175-1.13062,.8006-2.21002,.73993-.60999,.00006-1.06-.27997-1.32001-.50995-.23999-.22003-.57001-.29999-.89001-.22998-1.37,.31995-2.62,.91998-3.69995,1.72998,1.12994,1.78998,1.94,3.90002,2.31,6.20001,2.362-4.052,8.46259-5.49921,12.40997-2.79004-1.33002-2.54999-3.69-4.45996-6.59998-5.13995Z"/><text x="0" y="79" fill="#000000" font-size="5px" font-weight="bold" font-family="'Helvetica Neue', Helvetica, Arial-Unicode, Arial, Sans-serif">Created by LUTFI GANI AL ACHMAD</text><text x="0" y="84" fill="#000000" font-size="5px" font-weight="bold" font-family="'Helvetica Neue', Helvetica, Arial-Unicode, Arial, Sans-serif">from the Noun Project</text></svg>